# xmcd
#
# Track frame offsets: 
#        150
#        17612
#        34380
#        52795
#        67360
#        90040
#        112807
#        135570
#
# Disc length: 1943 seconds
#
# Revision: 0
# Processed by: cddbd v1.4PL0 Copyright (c) Steve Scherf et al.
# Submitted via: ExactAudioCopy v0.90a11
#
DISCID=5c079508
DTITLE=Debra Michaels-Don't You Wanna Fly?-CD Maxi Single - Debra Mich
DTITLE=aels-Don't You Wanna Fly?-CD Maxi Single
DYEAR=1900
DGENRE=
TTITLE0=Don't You Wanna Fly?-1:00 AM Mix[Radio Version]
TTITLE1=Don't You Wanna Fly?-Cosgrove/Clark Mix
TTITLE2=Don't You Wanna Fly?-3:00 AM Mix[Radio Version]
TTITLE3=Don't You Wanna Fly?-5:00 AM Mix[Radio Version]
TTITLE4=Don't You Wanna Fly?-1:00 AM Mix[Club Version]
TTITLE5=Don't You Wanna Fly?-3:00 AM Mix[Club Version]
TTITLE6=Don't You Wanna Fly?-5:00 AM Mix[Club Version]
TTITLE7=Don't You Wanna Fly?-Acappella
EXTD=
EXTT0=
EXTT1=
EXTT2=
EXTT3=
EXTT4=
EXTT5=
EXTT6=
EXTT7=
PLAYORDER=
